# xmcd
#
# Track frame offsets:
#	150
#	15120
#	27657
#	46077
#	58492
#	73317
#	86142
#	97065
#	112050
#	123515
#	137825
#	151842
#	166932
#	182882
#	199475
#	218482
#	239045
#	254670
#	269807
#	288602
#	301122
#	323247
#
# Disc length: 4440 seconds
#
# Revision: 0
# Processed by: cddbd v1.5.2PL0 Copyright (c) Steve Scherf et al.
# Submitted via: dBpowerAMP V4.0
#
DISCID=5c115616
DTITLE=Various Artist - Country Love Songs '92
DYEAR=1900
DGENRE=Country
TTITLE0=Somewhere In My Broken Heart
TTITLE1=Various Artist - Your love Is A Miracle
TTITLE2=Various Artist - She's In Love With The Boy
TTITLE3=Various Artist - Hopelessly In Love
TTITLE4=Various Artist - Can I Count On You
TTITLE5=Various Artist - Blue Memories
TTITLE6=Various Artist - Till I Found You
TTITLE7=Various Artist - Candle In The Window
TTITLE8=Various Artist - Not Counting You
TTITLE9=Various Artist - Together
TTITLE10=Various Artist - True Blue
TTITLE11=Various Artist - Dance With This Old Cowboy
TTITLE12=Various Artist - Forever Amd Ever, Amen
TTITLE13=Various Artist - I Fell In Love
TTITLE14=Various Artist - When I Called Your Name
TTITLE15=Various Artist - Fallin' Out Of Love
TTITLE16=Various Artist - Down To My Last TearDrop
TTITLE17=Various Artist - Heart Full Of Love
TTITLE18=Various Artist - Lady In Red
TTITLE19=Various Artist - It's Only Make Believe
TTITLE20=Various Artist - Leah
TTITLE21=Various Artist - Why Baby Why
EXTD=
EXTT0=
EXTT1=
EXTT2=
EXTT3=
EXTT4=
EXTT5=
EXTT6=
EXTT7=
EXTT8=
EXTT9=
EXTT10=
EXTT11=
EXTT12=
EXTT13=
EXTT14=
EXTT15=
EXTT16=
EXTT17=
EXTT18=
EXTT19=
EXTT20=
EXTT21=
PLAYORDER=
